<svg xmlns="http://www.w3.org/2000/svg" viewBox="0 0 480 240"><defs><linearGradient id="bg" x1="0" y1="0" x2="1" y2="1"><stop offset="0" stop-color="#050506"/><stop offset=".62" stop-color="#3b0d18"/><stop offset="1" stop-color="#e11739"/></linearGradient><radialGradient id="g" cx="72%" cy="26%" r="75%"><stop offset="0" stop-color="#ff6c81" stop-opacity=".8"/><stop offset="1" stop-color="#ff1739" stop-opacity="0"/></radialGradient></defs><rect width="480" height="240" rx="30" fill="url(#bg)"/><rect width="480" height="240" rx="30" fill="url(#g)"/><path d="M0 208c111-20 181-69 228-153-14 84-70 143-170 177H0z" fill="#ff1c3c" opacity=".35"/><g transform="translate(95 20) rotate(-10 145 92)" fill="#fff"><path d="M279 86c-5-14-22-21-36-16l-64 24-77-81-25 10 46 92-62 23-32-25-19 7 22 46 4 10 10-4 52-19 153-56c14-5 22-20 17-34z"/><path d="M68 187h163v9H68z" opacity=".7"/></g></svg>